<?xml version="1.0" standalone="no"?>
<!DOCTYPE svg PUBLIC "-//W3C//DTD SVG 20010904//EN"
 "http://www.w3.org/TR/2001/REC-SVG-20010904/DTD/svg10.dtd">
<svg version="1.0" xmlns="http://www.w3.org/2000/svg"
 width="128.000000pt" height="128.000000pt" viewBox="0 0 128.000000 128.000000"
 preserveAspectRatio="xMidYMid meet">

<g transform="translate(0.000000,128.000000) scale(0.100000,-0.100000)"
fill="#000000" stroke="none">
<path d="M512 1185 c-74 -62 -23 -175 78 -175 15 0 20 -7 20 -25 0 -21 5 -25
30 -25 25 0 30 4 30 25 l0 25 154 0 c166 0 186 3 186 29 0 37 -20 41 -182 41
l-158 0 0 25 c0 58 -47 105 -104 105 -13 0 -38 -11 -54 -25z m79 -45 c11 -6
19 -21 19 -36 0 -22 -4 -25 -32 -22 -36 3 -49 28 -28 53 15 18 16 18 41 5z"/>
<path d="M330 841 c-76 -16 -148 -68 -189 -135 -22 -36 -127 -361 -137 -423
-5 -35 -1 -53 21 -98 61 -125 209 -153 314 -61 63 56 80 65 110 56 43 -12 80
-1 117 36 47 48 101 48 148 0 37 -36 83 -50 120 -36 26 9 48 -2 101 -51 94
-88 236 -74 309 29 49 69 46 109 -19 317 -77 242 -105 288 -210 344 l-50 26
-300 2 c-165 1 -316 -2 -335 -6z m605 -126 c0 -25 -4 -30 -24 -30 -32 0 -49
28 -31 50 7 9 23 15 34 13 16 -2 21 -10 21 -33z m-537 -37 l3 -48 45 0 c31 0
46 -5 50 -15 10 -25 -16 -45 -57 -45 -39 0 -39 0 -39 -39 0 -21 -6 -44 -14
-50 -21 -17 -46 13 -46 55 0 32 -2 34 -34 34 -38 0 -68 23 -60 45 4 10 21 15
50 15 43 0 44 0 44 34 0 50 9 68 34 64 17 -2 22 -11 24 -50z m427 -73 c0 -25
-4 -30 -24 -30 -32 0 -49 28 -31 50 7 9 23 15 34 13 16 -2 21 -10 21 -33z
m210 24 c7 -11 -22 -49 -37 -49 -13 0 -9 48 5 53 19 8 25 8 32 -4z m-107 -108
c21 -13 11 -55 -14 -59 -30 -4 -48 21 -34 47 11 22 27 26 48 12z m-325 -56
c-3 -13 -53 -20 -53 -7 0 15 13 23 35 20 11 -2 19 -7 18 -13z m117 5 c0 -5 -9
-10 -20 -10 -11 0 -20 5 -20 10 0 6 9 10 20 10 11 0 20 -4 20 -10z m-180 -118
c43 -53 9 -132 -56 -132 -47 0 -69 13 -84 50 -35 86 83 156 140 82z m336 -14
c30 -58 -8 -118 -75 -118 -70 0 -105 77 -61 133 36 46 109 38 136 -15z"/>
</g>
</svg>
